<?xml version="1.0" encoding="utf-8"?>
<!-- Generator: Adobe Illustrator 21.0.0, SVG Export Plug-In . SVG Version: 6.00 Build 0)  -->
<svg version="1.1" id="katman_1" xmlns="http://www.w3.org/2000/svg" xmlns:xlink="http://www.w3.org/1999/xlink" x="0px" y="0px"
	 viewBox="0 0 500 500" style="enable-background:new 0 0 500 500;" xml:space="preserve">
<style type="text/css">
	.st0{fill:#EEA987;}
	.st1{fill:#E0CEC8;}
	.st2{fill:#FFEBE3;}
	.st3{fill:#A89B96;}
	.st4{fill:#323657;}
	.st5{fill:#ACECA1;}
	.st6{fill:#D9997A;}
	.st7{fill:#364551;}
	.st8{fill:#A1725B;}
	.st9{fill:#FFFFFF;}
	.st10{fill:#617C95;}
	.st11{fill:#EDDAD3;}
	.st12{fill:#AEDBF3;}
	.st13{fill:#F54132;}
	.st14{fill:#D1342C;}
	.st15{fill:#73A5F5;}
	.st16{fill:#C9B9B3;}
	.st17{fill:#EEA886;}
	.st18{fill:#3476AA;}
	.st19{fill:#FCCCA2;}
	.st20{fill:#71BFCC;}
</style>
<g>
	<g>
		<g>
			<g>
				<g>
					<path class="st0" d="M176.4,389.9c0,0-1.3,3.7-1.2,4.8c0.1,1.1,5.5-1,5.5-1s0.4-1.4,0.8-2.3
						C181.5,391.4,179.5,388.8,176.4,389.9z"/>
				</g>
			</g>
		</g>
	</g>
</g>
<g>
	<g>
		<g>
			<g>
				<g>
					<g>
						<path class="st1" d="M181,392.9c0,0,3.6,3.1,5.8,3.2c2.2,0.1,8.7,1.5,9,2.6c0.3,1.1,2.6,4-9.7,4.2c-12.2,0.2-13.3-0.1-13-2.3
							c0.3-2.2,1.2-5.3,1.6-7.5L181,392.9z"/>
					</g>
				</g>
			</g>
		</g>
	</g>
</g>
<g>
	<g>
		<g>
			<g>
				<g>
					<g>
						<g>
							<rect x="170.1" y="402.9" class="st2" width="15.6" height="1.8"/>
						</g>
					</g>
				</g>
			</g>
		</g>
	</g>
</g>
<g>
	<g>
		<g>
			<g>
				<g>
					<g>
						<g>
							<polygon class="st3" points="169.1,414.9 177.4,404.4 178,404.9 169.7,415.4 							"/>
						</g>
					</g>
				</g>
			</g>
		</g>
	</g>
</g>
<path class="st4" d="M168.3,249.2l-8.1,25.9l-6.3,20.2c0,0-13.9,1.1-11.6-8.8c1.1-4.7,2.7-9.4,4.6-13.8c4.8-11.3,11-20.7,13.6-22.8
	C164,246.8,168.3,249.2,168.3,249.2z"/>
<path class="st5" d="M160.2,275.1l-6.3,20.2c0,0-14.4,1-12.1-8.8c1.1-4.7,3.1-9.4,5.1-13.8L160.2,275.1z"/>
<g>
	<g>
		<g>
			<g>
				<g>
					<g>
						<g>
							<g>
								<path class="st6" d="M222.4,313.6c0,0,3.6,0.3,4.2,0.3c0.5,0.1,1.7,1,2.8,2.2c1.2,1.2,2.1,3.3,2.1,3.6
									c-0.1,0.3,0,0.6-0.6,1.1c-0.6,0.5-1.4,0.6-1.4,0.6s-0.5,0.9-1.5,1c0,0-0.5,0.9-1.6,0.8c0,0-0.5,0.8-1.3,0.7
									c0,0-1.1-0.9-1.6-1.2c-0.5-0.2-2.7-2.3-4.4-4.6C218.9,318.1,218.2,315.4,222.4,313.6z"/>
							</g>
						</g>
					</g>
				</g>
			</g>
		</g>
	</g>
</g>
<g>
	<g>
		<g>
			<g>
				<g>
					<g>
						<g>
							<path class="st7" d="M239.8,339l-1.5-1.8c0.1-0.1,7.4-6.1,7.8-12.5c0.2-2.4-0.7-4.6-2.5-6.5c-2-2.1-4.3-3.2-6.8-3.2
								c-6-0.1-11.5,5.5-11.6,5.6l0,0l-7,6.3l-1.6-1.7l6.9-6.3c0.5-0.5,6.4-6.3,13.1-6.3c0,0,0.1,0,0.1,0c3.2,0,6.1,1.4,8.5,4
								c2.3,2.4,3.3,5.2,3.1,8.3C247.9,332.3,240.1,338.7,239.8,339z M239,338.1l-0.7-0.9c0,0,0,0,0,0L239,338.1z"/>
						</g>
					</g>
				</g>
			</g>
		</g>
	</g>
</g>
<g>
	<g>
		<g>
			<g>
				<g>
					<g>
						<g>
							<path class="st0" d="M174.3,310.7c0,0,17.5,12.3,21.4,15.8c3.9,3.5,12.9,11.7,13.1,13.1c0.2,1.4,1.2,3.6-2.8,10
								c-4,6.4-11.4,18.5-12.5,20.6c-2.3,4.5-12,21.3-12,21.3l-5.2-1c0,0,6.1-22.4,11.9-36.6c1.5-3.8,5.4-9,4.2-10.6
								c-1.2-1.6-14.9-5.1-40.9-19.5c-2.6-1.4-4.6,1.6-4.2-2.2c0.4-3.8,0.1-17.3,7.9-20.2C162.8,298.6,174.3,310.7,174.3,310.7z"/>
						</g>
					</g>
				</g>
			</g>
		</g>
	</g>
</g>
<g>
	<g>
		<g>
			<g>
				<g>
					<g>
						<g>
							<g>
								<path class="st6" d="M230.4,319.9c0,0-2.9-2.7-3.4-2.3c-0.6,0.4-0.5,0.9-0.5,0.9l-1.8-0.6c0,0-1.5,0.2-0.9,1.6
									c0,0-1.4,0.1-0.6,1.4c0,0-0.9,0.4-0.7,1.1c0.2,0.7,2.2,2.3,2.2,2.3s0.6,0.2,1.2-0.7c0,0,1,0.1,1.5-0.8c0,0,0.8,0,1.4-1
									c0,0,1.9-0.2,1.9-1.6C230.7,320.2,230.5,320,230.4,319.9z"/>
							</g>
						</g>
					</g>
				</g>
			</g>
		</g>
	</g>
</g>
<g>
	<g>
		<g>
			<g>
				<g>
					<g>
						<path class="st8" d="M227,322.5c0,0-1.9-1.5-2.9-2.6l0.1-0.1c1,1.1,2.8,2.6,2.9,2.6L227,322.5z"/>
					</g>
				</g>
			</g>
		</g>
	</g>
</g>
<g>
	<g>
		<g>
			<g>
				<g>
					<g>
						<path class="st8" d="M225.5,323.3c-0.1,0-1.5-1.1-2.1-2l0.1-0.1c0.5,0.8,2,1.9,2.1,1.9L225.5,323.3z"/>
					</g>
				</g>
			</g>
		</g>
	</g>
</g>
<g>
	<g>
		<g>
			<g>
				<g>
					<g>
						<g>
							<path class="st9" d="M107.8,450c-6.2,0-12.2-1.2-17.9-3.6c-5.5-2.3-10.4-5.6-14.6-9.8c-4.2-4.2-7.5-9.1-9.8-14.6
								c-2.4-5.7-3.6-11.7-3.6-17.9c0-6.2,1.2-12.2,3.6-17.9c2.3-5.5,5.6-10.4,9.8-14.6c4.2-4.2,9.1-7.5,14.6-9.8
								c5.7-2.4,11.7-3.6,17.9-3.6c6.2,0,12.2,1.2,17.9,3.6c5.5,2.3,10.4,5.6,14.6,9.8c4.2,4.2,7.5,9.1,9.8,14.6
								c2.4,5.7,3.6,11.7,3.6,17.9c0,6.2-1.2,12.2-3.6,17.9c-2.3,5.5-5.6,10.4-9.8,14.6c-4.2,4.2-9.1,7.5-14.6,9.8
								C120,448.8,114,450,107.8,450z M107.8,360.5c-24,0-43.6,19.6-43.6,43.6c0,24,19.6,43.6,43.6,43.6c24,0,43.6-19.6,43.6-43.6
								C151.4,380,131.9,360.5,107.8,360.5z"/>
						</g>
					</g>
				</g>
			</g>
		</g>
	</g>
</g>
<g>
	<g>
		<g>
			<g>
				<g>
					<g>
						<g>
							<path class="st10" d="M107.8,447.6c-5.9,0-11.6-1.2-17-3.4c-5.2-2.2-9.8-5.3-13.8-9.3c-4-4-7.1-8.7-9.3-13.8
								c-2.3-5.4-3.4-11.1-3.4-17c0-5.9,1.2-11.6,3.4-17c2.2-5.2,5.3-9.8,9.3-13.8c4-4,8.7-7.1,13.8-9.3c5.4-2.3,11.1-3.4,17-3.4
								c5.9,0,11.6,1.2,17,3.4c5.2,2.2,9.8,5.3,13.8,9.3c4,4,7.1,8.7,9.3,13.8c2.3,5.4,3.4,11.1,3.4,17c0,5.9-1.2,11.6-3.4,17
								c-2.2,5.2-5.3,9.8-9.3,13.8c-4,4-8.7,7.1-13.8,9.3C119.4,446.5,113.7,447.6,107.8,447.6z M107.8,362.8
								c-22.7,0-41.2,18.5-41.2,41.2c0,22.7,18.5,41.2,41.2,41.2c22.7,0,41.2-18.5,41.2-41.2C149,381.3,130.5,362.8,107.8,362.8z"/>
						</g>
					</g>
				</g>
			</g>
		</g>
	</g>
</g>
<g>
	<g>
		<g>
			<g>
				<g>
					<g>
						<g>
							
								<rect x="157" y="332.6" transform="matrix(0.965 -0.2622 0.2622 0.965 -92.7603 54.586)" class="st11" width="2.3" height="84.6"/>
						</g>
					</g>
				</g>
			</g>
		</g>
	</g>
</g>
<g>
	<g>
		<g>
			<g>
				<g>
					<g>
						<g>
							<path class="st12" d="M131.4,326.5c0,0-0.5,7.4,6.4,8.3c6.9,0.8,19.4,0,19.4,0S139.5,322.4,131.4,326.5z"/>
						</g>
					</g>
				</g>
			</g>
		</g>
	</g>
</g>
<g>
	<g>
		<g>
			<g>
				<g>
					<g>
						<path class="st6" d="M195,262.5c0,0,7.6,22.2,8.9,24.7c1.3,2.4,18.5,26.4,18.5,26.4l-3.4,4.5c0,0-21-25.2-21.8-26.6
							c-0.8-1.4-10.7-25.9-10.7-25.9L195,262.5z"/>
					</g>
				</g>
			</g>
		</g>
	</g>
</g>
<g>
	<g>
		<g>
			<g>
				<g>
					<g>
						<path class="st0" d="M179.7,213.3c0,0,10.5,4.3,8.1,18.2c-2.4,13.9-12,14.5-16.8,3C166.2,223,167.7,210.9,179.7,213.3z"/>
					</g>
				</g>
			</g>
		</g>
	</g>
</g>
<g>
	<g>
		<g>
			<g>
				<g>
					<g>
						<path class="st13" d="M182.3,247.3c0,0,8.7,5.3,10.3,7.7c3.5,5.2,3.1,13.4,3.1,15c-0.1,5.3-6.1,6.5-6.1,8
							c0,1.5-4.3,9.5-5.2,13.7c-1,4.2-9.6,15.3-9.6,15.3s-16.4,5.4-23.3-10.7c0,0,5.6-11.7,6.6-17.5c3-17.5,4.4-20.2,5.6-22.6
							c2.3-4.5,6.9-8.3,7.9-9.2C172.6,246,182.3,247.3,182.3,247.3z"/>
					</g>
				</g>
			</g>
		</g>
	</g>
</g>
<g>
	<g>
		<g>
			<g>
				<g>
					<g>
						<path class="st0" d="M166.3,253.6c2-1.7,9.2-2.3,11.5,7.3c2.3,9.5,9.4,28.7,10.6,30.4c1.2,1.7,26.4,26.8,26.4,26.8l-3.7,3.6
							c0,0-27.9-19.1-29.3-21.7c-1.4-2.7-16.7-30.5-16.8-32.3C165,265.8,161.2,258,166.3,253.6z"/>
					</g>
				</g>
			</g>
		</g>
	</g>
</g>
<g>
	<g>
		<g>
			<g>
				<g>
					<g>
						<path class="st14" d="M182.3,247.3c0,0,12.4,4.5,14.4,16.7l-5,1.9C191.8,265.9,174.1,247.9,182.3,247.3z"/>
					</g>
				</g>
			</g>
		</g>
	</g>
</g>
<g>
	<g>
		<g>
			<g>
				<g>
					<g>
						<path class="st0" d="M180.4,242.5c0,0-0.2,3.4,0.4,4.3l1.5,0.5c0,0,4.1,7.9-0.5,8.8c-4.6,0.8-9.2-3.5-10.2-9.1
							c0,0,1.1-7.4,0.4-10.3C171.3,233.7,180.4,242.5,180.4,242.5z"/>
					</g>
				</g>
			</g>
		</g>
	</g>
</g>
<g>
	<g>
		<g>
			<g>
				<g>
					<g>
						<g>
							<path class="st10" d="M241.8,341.8l-1.5-1.8c0.1-0.1,7.4-6.1,7.8-12.5c0.2-2.4-0.7-4.6-2.5-6.5c-2-2.1-4.3-3.2-6.8-3.2
								c-6-0.1-11.5,5.5-11.6,5.6l0,0l-7,6.3l-1.6-1.7l6.9-6.3c0.5-0.5,6.4-6.3,13.1-6.3c0,0,0.1,0,0.1,0c3.2,0,6.1,1.4,8.5,4
								c2.3,2.4,3.3,5.2,3.1,8.3C250,335.1,242.2,341.5,241.8,341.8z M241.1,340.9l-0.7-0.9v0L241.1,340.9z"/>
						</g>
					</g>
				</g>
			</g>
		</g>
	</g>
</g>
<g>
	<g>
		<g>
			<g>
				<g>
					<g>
						<g>
							
								<rect x="161.6" y="420.2" transform="matrix(0.6227 -0.7825 0.7825 0.6227 -266.0358 289.4057)" class="st15" width="10.9" height="0.8"/>
						</g>
					</g>
				</g>
			</g>
		</g>
	</g>
</g>
<g>
	<g>
		<g>
			<g>
				<g>
					<g>
						<g>
							<path class="st9" d="M245.6,450c-6.2,0-12.2-1.2-17.9-3.6c-5.5-2.3-10.4-5.6-14.6-9.8c-4.2-4.2-7.5-9.1-9.8-14.6
								c-2.4-5.7-3.6-11.7-3.6-17.9c0-6.2,1.2-12.2,3.6-17.9c2.3-5.5,5.6-10.4,9.8-14.6c4.2-4.2,9.1-7.5,14.6-9.8
								c5.7-2.4,11.7-3.6,17.9-3.6c6.2,0,12.2,1.2,17.9,3.6c5.5,2.3,10.4,5.6,14.6,9.8c4.2,4.2,7.5,9.1,9.8,14.6
								c2.4,5.7,3.6,11.7,3.6,17.9c0,6.2-1.2,12.2-3.6,17.9c-2.3,5.5-5.6,10.4-9.8,14.6c-4.2,4.2-9.1,7.5-14.6,9.8
								C257.8,448.8,251.8,450,245.6,450z M245.6,360.5c-24,0-43.6,19.6-43.6,43.6c0,24,19.6,43.6,43.6,43.6
								c24,0,43.6-19.6,43.6-43.6C289.2,380,269.7,360.5,245.6,360.5z"/>
						</g>
					</g>
				</g>
			</g>
		</g>
	</g>
</g>
<g>
	<g>
		<g>
			<g>
				<g>
					<g>
						<g>
							<path class="st10" d="M245.6,447.6c-5.9,0-11.6-1.2-17-3.4c-5.2-2.2-9.8-5.3-13.8-9.3c-4-4-7.1-8.7-9.3-13.8
								c-2.3-5.4-3.4-11.1-3.4-17c0-5.9,1.2-11.6,3.4-17c2.2-5.2,5.3-9.8,9.3-13.8c4-4,8.7-7.1,13.8-9.3c5.4-2.3,11.1-3.4,17-3.4
								c5.9,0,11.6,1.2,17,3.4c5.2,2.2,9.8,5.3,13.8,9.3c4,4,7.1,8.7,9.3,13.8c2.3,5.4,3.4,11.1,3.4,17c0,5.9-1.2,11.6-3.4,17
								c-2.2,5.2-5.3,9.8-9.3,13.8c-4,4-8.7,7.1-13.8,9.3C257.2,446.5,251.5,447.6,245.6,447.6z M245.6,362.8
								c-22.7,0-41.2,18.5-41.2,41.2c0,22.7,18.5,41.2,41.2,41.2c22.7,0,41.2-18.5,41.2-41.2C286.8,381.3,268.3,362.8,245.6,362.8z"
								/>
						</g>
					</g>
				</g>
			</g>
		</g>
	</g>
</g>
<g>
	<g>
		<g>
			<g>
				<g>
					<g>
						<g>
							<polygon class="st10" points="244.5,404.4 222.7,325.1 224.9,324.4 246.7,403.8 							"/>
						</g>
					</g>
				</g>
			</g>
		</g>
	</g>
</g>
<g>
	<g>
		<g>
			<g>
				<g>
					<g>
						<g>
							<rect x="219.1" y="325.8" class="st11" width="4.2" height="2.2"/>
						</g>
					</g>
				</g>
			</g>
		</g>
	</g>
</g>
<g>
	<g>
		<g>
			<g>
				<g>
					<g>
						<g>
							<circle class="st11" cx="245.6" cy="404.1" r="3.1"/>
						</g>
					</g>
				</g>
			</g>
		</g>
	</g>
</g>
<g>
	<g>
		<g>
			<g>
				<g>
					<g>
						<polygon class="st10" points="169.7,417 105.9,404.3 148.7,339.5 227.8,339.5 227.8,341.8 150,341.8 109.7,402.7 168.8,414.5 
							228.8,346.6 230.2,348.5 						"/>
					</g>
				</g>
			</g>
		</g>
	</g>
</g>
<g>
	<g>
		<g>
			<g>
				<g>
					<g>
						<g>
							<path class="st16" d="M169.8,428.5c-0.8,0-1.6-0.1-2.4-0.2c-7-1.3-11.6-8-10.3-15c1.3-7,8-11.6,15-10.3
								c3.4,0.6,6.3,2.5,8.3,5.4c2,2.8,2.7,6.3,2.1,9.7l0,0C181.3,424.2,175.9,428.5,169.8,428.5z M169.8,405.7
								c-4.7,0-8.9,3.4-9.8,8.2c-1,5.4,2.6,10.6,8,11.6c5.4,1,10.6-2.6,11.6-8c0.5-2.6-0.1-5.3-1.6-7.5c-1.5-2.2-3.8-3.7-6.4-4.2
								C171,405.7,170.4,405.7,169.8,405.7z"/>
						</g>
					</g>
				</g>
			</g>
		</g>
	</g>
</g>
<g>
	<g>
		<g>
			<g>
				<g>
					<g>
						<g>
							
								<ellipse transform="matrix(0.1824 -0.9832 0.9832 0.1824 -269.8253 506.7771)" class="st2" cx="169.8" cy="415.6" rx="2" ry="2"/>
						</g>
					</g>
				</g>
			</g>
		</g>
	</g>
</g>
<g>
	<g>
		<g>
			<g>
				<g>
					<g>
						<g>
							<g>
								<path class="st17" d="M214.9,318.1c0,0,1.9,0.8,2.8,0.8c0.9,0,6.4-0.6,7.1,0.4c0.7,0.9,6,6.3,5.3,7.1
									c-0.7,0.8-1.3,0.4-1.6,0c-0.4-0.4-4.4-3.8-4.9-3.9c0,0,3.6,4.1,3,5.3c-0.6,1.2-1.7,1-2.4,1.2c-0.7,0.2-1.8,1.1-3,0.5
									c-1.2-0.5-5.9-4.9-7-5.6c-1.1-0.7-4-2.6-4-2.9C210.1,320.7,214.9,318.1,214.9,318.1z"/>
							</g>
						</g>
					</g>
				</g>
			</g>
		</g>
	</g>
</g>
<g>
	<g>
		<g>
			<g>
				<g>
					<g>
						<g>
							<path class="st0" d="M168.1,328.4c0,0,0.6,20.1,0.6,23.1c0.1,3.3,0.1,15.1-0.2,16.6c-0.3,1.5-2.4,44.7-2.4,44.7l-6.4-1.1
								c0,0-3.9-35.5-3.8-40.2c0.3-8.8-13.4-49.3-13.5-52.8C142.5,315.4,168.1,328.4,168.1,328.4z"/>
						</g>
					</g>
				</g>
			</g>
		</g>
	</g>
</g>
<g>
	<g>
		<g>
			<g>
				<g>
					<g>
						<polygon class="st0" points="166.2,412.9 166.2,415.7 160.4,415.5 159.8,411.8 						"/>
					</g>
				</g>
			</g>
		</g>
	</g>
</g>
<g>
	<g>
		<g>
			<g>
				<g>
					<g>
						<path class="st11" d="M166.2,414.1c0,0,3.6,3.1,5.8,3.2c2.2,0.1,8.7,1.5,9,2.6c0.3,1.1,2.4,5-9.8,4.5
							c-12.2-0.4-13.2-0.4-12.9-2.7c0.3-2.2,1.2-5.3,1.6-7.5L166.2,414.1z"/>
					</g>
				</g>
			</g>
		</g>
	</g>
</g>
<g>
	<g>
		<g>
			<g>
				<g>
					<g>
						<path class="st18" d="M175.2,306.4c0,0,4.6,6.8,17.3,16.9c0,0-36.9,21.9-42.6,22.2c-0.8,0-3.9-8.3-6.2-13
							c0,0-9.8-14.6,1.5-28.5c3.8-4.7,6.3-7.7,6.3-7.7L175.2,306.4z"/>
					</g>
				</g>
			</g>
		</g>
	</g>
</g>
<g>
	<g>
		<g>
			<g>
				<g>
					<g>
						<g>
							
								<rect x="156.6" y="424.2" transform="matrix(0.999 4.397450e-02 -4.397450e-02 0.999 18.8511 -6.817)" class="st2" width="15.6" height="1.8"/>
						</g>
					</g>
				</g>
			</g>
		</g>
	</g>
</g>
<g>
	<g>
		<g>
			<g>
				<g>
					<g>
						<g>
							<circle class="st11" cx="107.8" cy="404.1" r="3.1"/>
						</g>
					</g>
				</g>
			</g>
		</g>
	</g>
</g>
<g>
	<path class="st4" d="M153.8,266c-1.8-4.4,8.9-15.5,11-17.7l0.4-0.4l0.6,0.2c0.5,0.1,12.4,3.4,13,10.8c0.1,1.8-0.4,3.3-1.6,4.6
		c-2.8,3-9.1,4.4-19.8,4.4C155.1,267.9,154.2,266.9,153.8,266z M155.8,265.2c0.2,0.5,1.2,0.6,1.7,0.6c9.7,0,15.9-1.3,18.2-3.8
		c0.8-0.8,1.1-1.8,1-3c-0.4-5.1-8.5-8-10.8-8.8C160.3,256,155,263.2,155.8,265.2z"/>
</g>
<g>
	<g>
		<g>
			<g>
				<g>
					<g>
						<path class="st19" d="M176.7,219.2c0,0,10.4,5.5,11.4,8.5c0,0,3-5.5-2.5-13.7c-5.4-8.2-16.6-7.2-22.3-1.2
							c-5.7,6.1-6.1,17.2-14.2,18.1c-8.1,1-13.6-2.2-14.6,7.3c-1,9.6-12.4,2.7-13.8,10.2c-1.4,7.5,8.9,16.7,21.4,6.6
							c12.5-10.1,15.6-2.6,20.7-3.1c5.1-0.5,11.4-1.3,9.1-14.5C169.9,224.2,176.7,219.2,176.7,219.2z"/>
					</g>
				</g>
			</g>
		</g>
	</g>
</g>
<g>
	<g>
		<g>
			<g>
				<g>
					<g>
						<path class="st14" d="M165.8,272.9c0,0,13.4-6.3,14.9-6.3c0,0-2.8-17.9-13.9-13.5C166.8,253.1,158.6,257.4,165.8,272.9z"/>
					</g>
				</g>
			</g>
		</g>
	</g>
</g>
<g>
	<g>
		<g>
			<path class="st20" d="M443.1,84c0.1-0.9,0.1-1.7,0.1-2.6c0-16.4-13.3-29.7-29.7-29.7c-5.6,0-11,1.6-15.6,4.4
				c-2.9-16.9-18.4-29.5-36.5-28.5c-17.3,0.9-30.9,13.5-33.2,29.7c-3.1-1.1-6.3-1.7-9.6-1.7C302.3,55.6,289,69,289,85.3
				c0,0.3,0,0.7,0,1.1c-8.3,2.3-20.2,7.1-20.2,24c0,12.6,10.5,23.4,24.7,24.1l149.1-0.7c11-3.7,19.3-15,18.6-27.3
				C460.8,96,453.5,87.1,443.1,84z"/>
		</g>
	</g>
	<g>
		<g>
			<polygon class="st20" points="308.7,220.9 309.7,219.3 345.1,164.7 310.7,164.6 340,117.8 342.9,117.8 323,158.5 360,158.7 			
				"/>
		</g>
	</g>
	<g>
		<g>
			<polygon class="st20" points="363.4,199.3 364.3,197.9 396.1,148.9 365.2,148.8 391.5,106.8 394,106.8 376.2,143.4 409.4,143.5 
							"/>
		</g>
	</g>
</g>
</svg>
